<?xml version="1.0" encoding="UTF-8" standalone="no"?>
<svg
   height="24"
   width="24"
   version="1.1"
   id="svg167"
   sodipodi:docname="select_freehand.svg"
   inkscape:version="1.4 (86a8ad7, 2024-10-11)"
   xmlns:inkscape="http://www.inkscape.org/namespaces/inkscape"
   xmlns:sodipodi="http://sodipodi.sourceforge.net/DTD/sodipodi-0.dtd"
   xmlns="http://www.w3.org/2000/svg"
   xmlns:svg="http://www.w3.org/2000/svg"
   xmlns:rdf="http://www.w3.org/1999/02/22-rdf-syntax-ns#"
   xmlns:cc="http://creativecommons.org/ns#"
   xmlns:dc="http://purl.org/dc/elements/1.1/">
  <metadata
     id="metadata173">
    <rdf:RDF>
      <cc:Work
         rdf:about="">
        <dc:format>image/svg+xml</dc:format>
        <dc:type
           rdf:resource="http://purl.org/dc/dcmitype/StillImage" />
      </cc:Work>
    </rdf:RDF>
  </metadata>
  <defs
     id="defs171" />
  <sodipodi:namedview
     pagecolor="#ffffff"
     bordercolor="#666666"
     borderopacity="1"
     objecttolerance="10"
     gridtolerance="10"
     guidetolerance="10"
     inkscape:pageopacity="0"
     inkscape:pageshadow="2"
     inkscape:window-width="2400"
     inkscape:window-height="1261"
     id="namedview169"
     showgrid="false"
     inkscape:zoom="24.66035"
     inkscape:cx="18.105988"
     inkscape:cy="12.307206"
     inkscape:window-x="2391"
     inkscape:window-y="-9"
     inkscape:window-maximized="1"
     inkscape:current-layer="g1346"
     inkscape:showpageshadow="2"
     inkscape:pagecheckerboard="0"
     inkscape:deskcolor="#d1d1d1" />
  <g
     style="display:inline;opacity:0.3"
     id="g5456"
     transform="matrix(1.2307692,0,0,1.2307692,0,-9.8461542)">
    <rect
       y="8"
       x="6.499999"
       height="6.499999"
       width="6.499999"
       id="rect6419"
       style="fill:#6e97c4;fill-opacity:1;fill-rule:nonzero;stroke:none" />
    <rect
       y="8"
       x="13.000001"
       height="6.499999"
       width="6.499999"
       id="rect6419-6"
       style="display:inline;fill:#253e5b;fill-opacity:1;fill-rule:nonzero;stroke:none" />
    <rect
       inkscape:transform-center-y="-4.3333322"
       inkscape:transform-center-x="-3.2499991"
       y="14.5"
       x="6.499999"
       height="6.499999"
       width="6.499999"
       id="rect6419-6-9"
       style="display:inline;fill:#253e5b;fill-opacity:1;fill-rule:nonzero;stroke:none" />
    <rect
       y="14.5"
       x="13.000001"
       height="6.499999"
       width="6.499999"
       id="rect6419-0"
       style="display:inline;fill:#6d97c4;fill-opacity:1;fill-rule:nonzero;stroke:none" />
    <rect
       y="8"
       x="0"
       height="6.499999"
       width="6.499999"
       id="rect6419-6-7"
       style="display:inline;fill:#253e5b;fill-opacity:1;fill-rule:nonzero;stroke:none" />
    <rect
       y="14.5"
       x="0"
       height="6.499999"
       width="6.499999"
       id="rect6419-3"
       style="display:inline;fill:#6d97c4;fill-opacity:1;fill-rule:nonzero;stroke:none" />
    <rect
       y="21.000002"
       x="6.499999"
       height="6.499999"
       width="6.499999"
       id="rect6419-5"
       style="display:inline;fill:#6d97c4;fill-opacity:1;fill-rule:nonzero;stroke:none" />
    <rect
       y="21.000002"
       x="0"
       height="6.499999"
       width="6.499999"
       id="rect6419-6-6"
       style="display:inline;fill:#253e5b;fill-opacity:1;fill-rule:nonzero;stroke:none" />
    <rect
       y="8"
       x="0"
       height="19.499998"
       width="19.499998"
       id="rect6554"
       style="fill:none;stroke:none" />
  </g>
  <path
     d="m 17.015749,21.047602 c 4.424057,0.368246 0.394784,-5.746844 2.57892,-7.682815 2.566694,-1.588024 1.057473,-4.9085373 -0.05503,-5.7081763 C 17.834705,6.6370685 16.131031,6.7338502 15.023264,5.8718078 13.447058,4.645235 13.502451,2.3173647 10.38458,1.949757 8.8363901,1.5715946 5.1047103,3.5044759 3.8326305,5.616364 c -1.6840747,2.7958759 2.1904497,5.354118 2.2645282,9.020948 0.04785,2.368522 -2.1680946,5.944551 0.9232941,6.889375 3.6205572,1.106555 1.775182,-2.947036 9.9952962,-0.479085 z"
     fill="none"
     stroke="#424242"
     stroke-dasharray="4, 1"
     id="path2"
     inkscape:label="path162"
     sodipodi:nodetypes="cccscsssc"
     style="display:inline;fill:#e5e5e5;fill-opacity:1;stroke-width:0;stroke-dasharray:0, 0;stroke-dashoffset:0" />
  <g
     id="g1346"
     transform="translate(-37.111954,0.94248196)">
    <path
       d="m 17.015749,21.047602 c 4.424057,0.368246 0.394784,-5.746844 2.57892,-7.682815 2.566694,-1.588024 1.057473,-4.9085373 -0.05503,-5.7081763 C 17.834705,6.6370685 16.131031,6.7338502 15.023264,5.8718078 13.447058,4.645235 13.502451,2.3173647 10.38458,1.949757 8.8363901,1.5715946 5.1047103,3.5044759 3.8326305,5.616364 c -1.6840747,2.7958759 2.1904497,5.354118 2.2645282,9.020948 0.04785,2.368522 -2.1680946,5.944551 0.9232941,6.889375 3.6205572,1.106555 1.775182,-2.947036 9.9952962,-0.479085 z"
       fill="none"
       stroke="#424242"
       stroke-dasharray="4, 1"
       id="path161"
       inkscape:label="path162"
       sodipodi:nodetypes="cccscsssc"
       transform="translate(37.111954,-0.94248196)"
       style="display:inline" />
    <path
       d="m 53.888731,11.37437 -10.95239,-5.9920856 4.702894,11.6778306 1.872456,-3.031802 3.702315,4.04681 1.402159,-1.366251 -3.785116,-4.008089 z"
       style="fill:#ffffff;fill-rule:evenodd;stroke:#000000;stroke-width:0.601003;stroke-linecap:round;stroke-linejoin:round"
       id="path163"
       sodipodi:insensitive="true"
       sodipodi:nodetypes="cccccccc" />
  </g>
</svg>
